<svg fill="#00629B" xmlns="http://www.w3.org/2000/svg" xmlns:xlink="http://www.w3.org/1999/xlink" version="1.1" x="0px" y="0px" viewBox="0 0 100 100" enable-background="new 0 0 100 100" xml:space="preserve"><g><path d="M86.89,59.587L84.83,50l2.126-9.893c0.214-0.995-0.196-2.02-1.037-2.592c-0.842-0.573-1.944-0.577-2.792-0.016   l-10.226,6.802c-1.007-0.989-2.085-1.932-3.272-2.796c-3.969-2.889-8.788-4.973-14.034-6.154v-3.165   c0-0.866-0.448-1.67-1.185-2.126s-1.657-0.497-2.432-0.111l-8.598,4.289c-0.012,0.002-0.024,0.002-0.036,0.004   c-9.342-0.15-18.253,2.436-24.89,7.265c-0.748,0.545-1.46,1.126-2.145,1.729c-0.882-0.316-1.904-0.129-2.609,0.578   c-0.977,0.977-0.977,2.559,0,3.535l0.973,0.973l3.868,4.335l-0.296,0.056c-1.031,0.04-1.932,0.709-2.267,1.684   c-0.336,0.976-0.039,2.057,0.748,2.723c0.487,0.412,1.073,0.897,1.729,1.375c2.636,1.918,5.628,3.478,8.861,4.658   c3.331-3.962,5.154-8.915,5.154-14.153c0-0.69,0.56-1.25,1.25-1.25s1.25,0.56,1.25,1.25c0,5.497-1.801,10.715-5.113,14.99   c0.444,0.13,0.891,0.256,1.343,0.372l11.404,5.689c0.353,0.176,0.734,0.263,1.116,0.263c0.457,0,0.914-0.125,1.315-0.374   c0.736-0.456,1.185-1.26,1.185-2.126v-2.058h0.479c0.001,0,0.002,0,0.004,0c0.014,0,0.028,0,0.042-0.001   c8.633-0.227,16.76-2.806,22.883-7.261c1.187-0.864,2.266-1.807,3.271-2.796L83.127,62.5c0.42,0.278,0.902,0.418,1.385,0.418   c0.007,0.001,0.015,0,0.02,0c1.381,0,2.5-1.119,2.5-2.5C87.031,60.127,86.981,59.847,86.89,59.587z M24.845,43.75   c1.726,0,3.125,1.399,3.125,3.125S26.57,50,24.845,50s-3.125-1.399-3.125-3.125S23.119,43.75,24.845,43.75z"></path></g></svg>